<svg width="37" height="28" viewBox="0 0 37 28" fill="none" xmlns="http://www.w3.org/2000/svg">
<g clip-path="url(#clip0_3_110)">
<path d="M10.7916 27.7143C12.4945 27.7143 13.875 26.6909 13.875 25.4286C13.875 24.1662 12.4945 23.1429 10.7916 23.1429C9.08877 23.1429 7.70831 24.1662 7.70831 25.4286C7.70831 26.6909 9.08877 27.7143 10.7916 27.7143Z" fill="black"/>
<path d="M26.2083 27.7143C27.9112 27.7143 29.2917 26.6909 29.2917 25.4286C29.2917 24.1662 27.9112 23.1429 26.2083 23.1429C24.5055 23.1429 23.125 24.1662 23.125 25.4286C23.125 26.6909 24.5055 27.7143 26.2083 27.7143Z" fill="black"/>
<path d="M30.4479 15.328C30.2243 15.9316 29.7395 16.4641 29.068 16.8436C28.3964 17.2231 27.5754 17.4286 26.731 17.4286H11.1262C11.0002 17.4278 10.879 17.3922 10.7864 17.3289C10.6937 17.2655 10.6363 17.1788 10.6252 17.0857L9.3055 9.42856H16.1875C16.8008 9.42856 17.389 9.24795 17.8227 8.92646C18.2564 8.60497 18.5 8.16893 18.5 7.71428C18.5 7.25962 18.2564 6.82358 17.8227 6.50209C17.389 6.1806 16.8008 5.99999 16.1875 5.99999H8.71504L8.31112 3.64456C8.16457 2.71934 7.56492 1.86619 6.62597 1.24703C5.68703 0.62787 4.47413 0.285789 3.21746 0.285706L2.3125 0.285706C1.69919 0.285706 1.11099 0.466317 0.677316 0.787808C0.243638 1.1093 0 1.54533 0 1.99999C0 2.45465 0.243638 2.89068 0.677316 3.21217C1.11099 3.53366 1.69919 3.71428 2.3125 3.71428H3.21746C3.34351 3.71505 3.46466 3.75059 3.55729 3.81398C3.64992 3.87736 3.70739 3.96405 3.7185 4.05713L6.031 17.4971C6.17724 18.4228 6.77696 19.2763 7.71626 19.8958C8.65557 20.5152 9.86904 20.8573 11.1262 20.8571H26.731C28.5872 20.8563 30.3919 20.404 31.8679 19.5695C33.3439 18.735 34.4097 17.5646 34.9018 16.2377L34.9265 16.1691C35.0208 15.9151 35.0348 15.6483 34.9675 15.3895C34.9001 15.1308 34.7532 14.887 34.5382 14.6772C34.3232 14.4674 34.0457 14.2971 33.7275 14.1797C33.4093 14.0622 33.0588 14.0007 32.7034 14C32.1975 13.9999 31.7055 14.1228 31.3028 14.3499C30.9001 14.577 30.609 14.8957 30.4741 15.2571L30.4479 15.328Z" fill="black"/>
<path d="M34.6875 3.71428H32.375V1.99999C32.375 1.54533 32.1314 1.1093 31.6977 0.787808C31.264 0.466317 30.6758 0.285706 30.0625 0.285706C29.4492 0.285706 28.861 0.466317 28.4273 0.787808C27.9936 1.1093 27.75 1.54533 27.75 1.99999V3.71428H25.4375C24.8242 3.71428 24.236 3.89489 23.8023 4.21638C23.3686 4.53787 23.125 4.9739 23.125 5.42856C23.125 5.88322 23.3686 6.31925 23.8023 6.64074C24.236 6.96223 24.8242 7.14285 25.4375 7.14285H27.75V8.85713C27.75 9.31179 27.9936 9.74782 28.4273 10.0693C28.861 10.3908 29.4492 10.5714 30.0625 10.5714C30.6758 10.5714 31.264 10.3908 31.6977 10.0693C32.1314 9.74782 32.375 9.31179 32.375 8.85713V7.14285H34.6875C35.3008 7.14285 35.889 6.96223 36.3227 6.64074C36.7564 6.31925 37 5.88322 37 5.42856C37 4.9739 36.7564 4.53787 36.3227 4.21638C35.889 3.89489 35.3008 3.71428 34.6875 3.71428Z" fill="black"/>
</g>
<defs>
<clipPath id="clip0_3_110">
<rect width="37" height="27.4286" fill="white" transform="translate(0 0.285706)"/>
</clipPath>
</defs>
</svg>
