<svg width="113" height="86" viewBox="0 0 113 86" fill="none" xmlns="http://www.w3.org/2000/svg">
<path d="M10.192 59.784C11.816 59.784 13.2347 60.26 14.448 61.212C15.6613 62.164 16.268 63.396 16.268 64.908C16.268 65.7107 16.044 66.3733 15.596 66.896C15.148 67.4187 14.5973 67.68 13.944 67.68C13.2907 67.68 12.768 67.596 12.376 67.428C12.432 67.1293 12.46 66.812 12.46 66.476C12.4413 65.3 12.152 64.348 11.592 63.62C11.032 62.8733 10.2107 62.5 9.128 62.5C8.064 62.5 7.07467 62.8453 6.16 63.536C5.61867 64.32 5.19867 65.3467 4.9 66.616C4.60133 67.8853 4.452 69.136 4.452 70.368C4.452 72.4213 4.844 74.148 5.628 75.548C6.43067 76.9293 7.672 77.62 9.352 77.62C10.9013 77.62 11.9467 77.032 12.488 75.856C12.992 74.8293 13.244 73.4667 13.244 71.768C14.196 71.768 14.9893 71.9453 15.624 72.3C16.2587 72.636 16.576 73.196 16.576 73.98C16.576 75.8093 15.7733 77.3307 14.168 78.544C12.5627 79.7387 10.752 80.336 8.736 80.336C6.104 80.336 4.10667 79.468 2.744 77.732C1.38133 75.9773 0.7 73.6067 0.7 70.62C0.7 67.6333 1.54933 65.0853 3.248 62.976C4.96533 60.848 7.28 59.784 10.192 59.784ZM31.3965 66.812C30.8925 68.9587 30.6405 71.1147 30.6405 73.28C30.6405 75.4267 30.8832 77.5547 31.3685 79.664C30.6965 79.888 30.0059 80 29.2965 80C28.5872 80 28.0925 79.7947 27.8125 79.384C27.5325 78.9547 27.3925 78.348 27.3925 77.564C27.3925 76.7613 27.5139 75.6693 27.7565 74.288C26.4312 77.1253 25.1525 78.9173 23.9205 79.664C23.3605 80 22.7819 80.168 22.1845 80.168C20.7659 80.168 19.6645 79.6453 18.8805 78.6C18.0965 77.536 17.7045 76.22 17.7045 74.652C17.7045 72.2627 18.3672 70.172 19.6925 68.38C21.0179 66.5693 22.7352 65.664 24.8445 65.664C26.9725 65.664 29.1565 66.0467 31.3965 66.812ZM27.7285 68.492C26.7392 68.1933 25.8992 68.044 25.2085 68.044C23.8085 68.044 22.7632 68.352 22.0725 68.968C21.4379 70.536 21.1205 72.132 21.1205 73.756C21.1205 74.6147 21.2512 75.4827 21.5125 76.36C21.7925 77.2373 22.2125 77.676 22.7725 77.676C23.4259 77.676 24.2659 76.7147 25.2925 74.792C26.3192 72.8693 27.1312 70.7693 27.7285 68.492ZM37.9743 79.664C37.3957 79.888 36.7797 80 36.1263 80C35.473 80 34.941 79.8507 34.5303 79.552C34.1383 79.2347 33.9423 78.8053 33.9423 78.264C33.9423 77.704 34.0263 76.696 34.1943 75.24C34.3623 73.784 34.4463 72.3747 34.4463 71.012C34.4463 69.6307 34.2317 68.016 33.8023 66.168C34.3997 65.944 34.9877 65.832 35.5663 65.832C36.145 65.832 36.6397 66.028 37.0503 66.42C37.4797 66.812 37.6943 67.3347 37.6943 67.988C37.6943 68.324 37.6383 68.828 37.5263 69.5C37.4143 70.1533 37.349 70.648 37.3303 70.984C38.0583 69.3227 38.917 68.0253 39.9063 67.092C40.9143 66.14 41.913 65.664 42.9023 65.664C43.593 65.664 44.1437 65.9067 44.5543 66.392C44.965 66.8773 45.1703 67.4933 45.1703 68.24C45.1703 68.968 44.9837 69.5653 44.6103 70.032C44.237 70.48 43.7703 70.704 43.2103 70.704C42.669 70.704 42.2303 70.648 41.8943 70.536C41.9503 70.312 41.9783 70.1067 41.9783 69.92C41.9783 69.1547 41.7077 68.772 41.1663 68.772C40.345 68.772 39.5703 69.6027 38.8423 71.264C38.133 72.9067 37.657 74.4467 37.4143 75.884C37.5077 77.284 37.6943 78.544 37.9743 79.664ZM50.7712 79.664C50.1926 79.888 49.5766 80 48.9232 80C48.2699 80 47.7379 79.8507 47.3272 79.552C46.9352 79.2347 46.7392 78.8053 46.7392 78.264C46.7392 77.704 46.8232 76.696 46.9912 75.24C47.1592 73.784 47.2432 72.3747 47.2432 71.012C47.2432 69.6307 47.0286 68.016 46.5992 66.168C47.1966 65.944 47.7846 65.832 48.3632 65.832C48.9419 65.832 49.4366 66.028 49.8472 66.42C50.2766 66.812 50.4912 67.3347 50.4912 67.988C50.4912 68.324 50.4352 68.828 50.3232 69.5C50.2112 70.1533 50.1459 70.648 50.1272 70.984C50.8552 69.3227 51.7139 68.0253 52.7032 67.092C53.7112 66.14 54.7099 65.664 55.6992 65.664C56.3899 65.664 56.9406 65.9067 57.3512 66.392C57.7619 66.8773 57.9672 67.4933 57.9672 68.24C57.9672 68.968 57.7806 69.5653 57.4072 70.032C57.0339 70.48 56.5672 70.704 56.0072 70.704C55.4659 70.704 55.0272 70.648 54.6912 70.536C54.7472 70.312 54.7752 70.1067 54.7752 69.92C54.7752 69.1547 54.5046 68.772 53.9632 68.772C53.1419 68.772 52.3672 69.6027 51.6392 71.264C50.9299 72.9067 50.4539 74.4467 50.2112 75.884C50.3046 77.284 50.4912 78.544 50.7712 79.664ZM59.5641 66.084C60.1614 65.916 60.7588 65.832 61.3561 65.832C61.9721 65.832 62.4948 66.0187 62.9241 66.392C63.3534 66.7653 63.5681 67.2507 63.5681 67.848C63.5681 68.4267 63.4654 69.444 63.2601 70.9C63.0734 72.3373 62.9801 73.4573 62.9801 74.26C62.9801 76.3507 63.1761 78.152 63.5681 79.664C62.9894 79.888 62.3641 80 61.6921 80C61.0201 80 60.4881 79.8507 60.0961 79.552C59.7041 79.2347 59.5081 78.7867 59.5081 78.208C59.5081 77.6107 59.6201 76.64 59.8441 75.296C60.0681 73.952 60.1801 72.8413 60.1801 71.964C60.1801 69.6307 59.9748 67.6707 59.5641 66.084ZM59.9281 59.756C60.5814 59.4573 61.2254 59.308 61.8601 59.308C62.4948 59.308 62.9614 59.476 63.2601 59.812C63.5774 60.1293 63.7361 60.6053 63.7361 61.24C63.7361 61.8747 63.5214 62.4347 63.0921 62.92C62.6814 63.4053 62.1401 63.648 61.4681 63.648C60.0868 63.648 59.3961 62.9293 59.3961 61.492C59.3961 60.8573 59.5734 60.2787 59.9281 59.756ZM79.6368 68.688L79.3568 74.848C79.3568 76.5467 79.6181 78.208 80.1408 79.832C79.6181 80.056 79.0208 80.168 78.3488 80.168C76.7621 80.168 75.9688 79.2813 75.9688 77.508C75.9688 76.7053 76.0715 75.3613 76.2768 73.476C76.4821 71.572 76.5848 70.3773 76.5848 69.892C76.5848 68.9587 76.1648 68.492 75.3248 68.492C74.7088 68.492 74.0088 68.94 73.2248 69.836C72.4595 70.7133 71.7968 71.7027 71.2368 72.804C70.6955 73.8867 70.3781 74.7827 70.2848 75.492C70.3595 76.948 70.5461 78.3387 70.8448 79.664C70.2475 79.888 69.6221 80 68.9688 80C68.3341 80 67.8115 79.8507 67.4008 79.552C67.0088 79.2347 66.8128 78.8053 66.8128 78.264C66.8128 77.704 66.8968 76.7147 67.0648 75.296C67.2328 73.8587 67.3168 72.44 67.3168 71.04C67.3168 69.6213 67.1021 67.9973 66.6728 66.168C67.2701 65.944 67.9048 65.832 68.5768 65.832C69.2488 65.832 69.7901 66.028 70.2008 66.42C70.6301 66.812 70.8448 67.2973 70.8448 67.876C70.8448 68.4547 70.7701 69.3787 70.6208 70.648C71.3301 69.3227 72.2541 68.1653 73.3928 67.176C74.5315 66.168 75.6701 65.664 76.8088 65.664C78.6941 65.664 79.6368 66.672 79.6368 68.688ZM95.9311 68.688L95.6511 74.848C95.6511 76.4907 95.9217 78.152 96.4631 79.832C95.8844 80.056 95.2964 80.168 94.6991 80.168C93.0751 80.168 92.2631 79.3093 92.2631 77.592C92.2631 76.3227 92.3751 74.8293 92.5991 73.112C92.8231 71.3947 92.9351 70.34 92.9351 69.948C92.9351 68.9773 92.4964 68.492 91.6191 68.492C90.6857 68.492 89.6497 69.3693 88.5111 71.124C87.3724 72.86 86.7191 74.316 86.5511 75.492C86.5884 76.0333 86.7751 77.424 87.1111 79.664C86.5324 79.888 85.8977 80 85.2071 80C83.7697 80 83.0511 79.3 83.0511 77.9C83.0511 77.228 83.1537 75.912 83.3591 73.952C83.5644 71.9733 83.6671 70.3867 83.6671 69.192C83.6671 65.216 83.4431 61.9307 82.9951 59.336C83.5924 59.112 84.2084 59 84.8431 59C85.4777 59 86.0004 59.2147 86.4111 59.644C86.8404 60.0547 87.0551 60.624 87.0551 61.352C87.0551 62.08 86.9524 63.5827 86.7471 65.86C86.5604 68.1373 86.4671 69.9107 86.4671 71.18C87.1204 69.7987 88.0724 68.5387 89.3231 67.4C90.5924 66.2427 91.8524 65.664 93.1031 65.664C94.9884 65.664 95.9311 66.672 95.9311 68.688ZM104.415 80.336C102.362 80.336 100.85 79.7387 99.8793 78.544C98.9086 77.3307 98.4233 75.6507 98.4233 73.504C98.4233 71.3387 99.0673 69.4627 100.355 67.876C101.643 66.2893 103.295 65.496 105.311 65.496C109.455 65.496 111.527 67.8293 111.527 72.496C111.527 74.68 110.855 76.5373 109.511 78.068C108.167 79.58 106.469 80.336 104.415 80.336ZM102.399 68.576C102.063 69.6587 101.895 70.7413 101.895 71.824C101.895 72.9067 101.933 73.7467 102.007 74.344C102.082 74.9413 102.222 75.5387 102.427 76.136C102.857 77.3493 103.697 77.956 104.947 77.956C106.217 77.956 107.047 77.62 107.439 76.948C107.85 76.276 108.055 75.24 108.055 73.84C108.055 69.864 107.113 67.876 105.227 67.876C104.145 67.876 103.202 68.1093 102.399 68.576Z" fill="black"/>
<g clip-path="url(#clip0_2_23)">
<g clip-path="url(#clip1_2_23)">
<path d="M218.333 59.7893C215.239 71.057 208.53 80.9968 199.238 88.0808C189.945 95.1649 178.583 99.0011 166.899 99H-49.0373C-50.7817 98.9856 -52.4581 98.3221 -53.7399 97.1389C-55.0217 95.9557 -55.817 94.3376 -55.9707 92.6L-74.232 -50.3333H21C29.4869 -50.3333 37.6263 -53.7047 43.6274 -59.7059C49.6286 -65.7071 53 -73.8464 53 -82.3333C53 -90.8203 49.6286 -98.9596 43.6274 -104.961C37.6263 -110.962 29.4869 -114.333 21 -114.333H-82.4027L-87.992 -158.301C-90.02 -175.572 -98.3179 -191.498 -111.311 -203.055C-124.304 -214.613 -141.088 -220.998 -158.477 -221H-171C-179.487 -221 -187.626 -217.629 -193.627 -211.627C-199.629 -205.626 -203 -197.487 -203 -189C-203 -180.513 -199.629 -172.374 -193.627 -166.373C-187.626 -160.371 -179.487 -157 -171 -157H-158.477C-156.733 -156.986 -155.057 -156.322 -153.775 -155.139C-152.493 -153.956 -151.698 -152.338 -151.544 -150.6L-119.544 100.28C-117.52 117.558 -109.222 133.492 -96.2236 145.054C-83.2256 156.617 -66.4338 163.003 -49.0373 163H166.899C192.585 162.985 217.558 154.541 237.982 138.964C258.407 123.387 273.156 101.538 279.965 76.7707L280.307 75.4907C281.612 70.748 281.806 65.7682 280.874 60.9382C279.943 56.1082 277.91 51.5581 274.934 47.6413C271.958 43.7245 268.119 40.5464 263.716 38.354C259.313 36.1616 254.463 35.0139 249.544 35C242.543 34.9985 235.735 37.293 230.163 41.5316C224.591 45.7703 220.563 51.7193 218.696 58.4667L218.333 59.7893Z" fill="black"/>
</g>
</g>
<g clip-path="url(#clip2_2_23)">
<path d="M40.5 53C43.2614 53 45.5 51.0226 45.5 48.5833C45.5 46.1441 43.2614 44.1667 40.5 44.1667C37.7386 44.1667 35.5 46.1441 35.5 48.5833C35.5 51.0226 37.7386 53 40.5 53Z" fill="black"/>
<path d="M65.5 53C68.2614 53 70.5 51.0226 70.5 48.5833C70.5 46.1441 68.2614 44.1667 65.5 44.1667C62.7386 44.1667 60.5 46.1441 60.5 48.5833C60.5 51.0226 62.7386 53 65.5 53Z" fill="black"/>
<path d="M80.46 13.2898C78.7002 11.8033 76.3443 10.9947 73.91 11.0417H37.135L36.4775 6.48808C36.2388 4.70087 35.2659 3.05314 33.7435 1.85729C32.2211 0.661436 30.2548 0.000578311 28.2175 0L26.75 0C25.7554 0 24.8016 0.348994 24.0983 0.970209C23.3951 1.59142 23 2.43397 23 3.3125V3.3125C23 4.19103 23.3951 5.03358 24.0983 5.65479C24.8016 6.27601 25.7554 6.625 26.75 6.625H28.2175C28.422 6.62694 28.6185 6.69571 28.769 6.81805C28.9195 6.94039 29.0134 7.10763 29.0325 7.2875L32.7825 33.2553C33.019 35.0439 33.9909 36.6935 35.5137 37.8908C37.0364 39.0881 39.0039 39.7497 41.0425 39.75H66.3475C69.3577 39.7484 72.2841 38.8744 74.6776 37.2619C77.0712 35.6495 78.7995 33.3878 79.5975 30.8239L82.7125 20.818C83.1278 19.4995 83.138 18.1071 82.7421 16.784C82.3462 15.4609 81.5585 14.2548 80.46 13.2898ZM72.375 29.0683C72.009 30.2328 71.2218 31.2595 70.1335 31.992C69.0453 32.7244 67.7157 33.1223 66.3475 33.125H41.0425C40.8381 33.1235 40.6416 33.0548 40.4914 32.9323C40.3412 32.8099 40.248 32.6424 40.23 32.4625L38.0925 17.6667H74.285C74.4781 17.6654 74.6689 17.7036 74.8424 17.7784C75.016 17.8532 75.1675 17.9625 75.2853 18.0977C75.403 18.2329 75.4836 18.3904 75.5209 18.5577C75.5581 18.7251 75.551 18.8978 75.5 19.0623L72.375 29.0683Z" fill="black"/>
</g>
<defs>
<clipPath id="clip0_2_23">
<rect x="32" width="51" height="53" rx="7" fill="white"/>
</clipPath>
<clipPath id="clip1_2_23">
<rect width="512" height="512" fill="white" transform="translate(-203 -221)"/>
</clipPath>
<clipPath id="clip2_2_23">
<rect x="23" width="60" height="53" rx="7" fill="white"/>
</clipPath>
</defs>
</svg>
