<svg width="68" height="86" viewBox="0 0 68 86" fill="none" xmlns="http://www.w3.org/2000/svg">
<path d="M57.8218 19.1992L42.7641 3.55099C38.1965 -1.1835 30.8034 -1.1835 26.2358 3.55099L11.1781 19.1992C9.77881 20.6456 8.99449 22.6137 8.99997 24.6648V47.5828C9.00465 50.5743 11.3383 52.9974 14.2169 52.9999H54.783C57.6616 52.9975 59.9952 50.5743 59.9999 47.5828V24.6648C60.0054 22.6137 59.2211 20.6456 57.8218 19.1992ZM53.6249 46.3749H50C46.134 46.3749 43 43.214 43 39.348C43 34.6914 39.3675 30.9165 34.8867 30.9165H34.1132C29.6324 30.9165 26 34.6914 26 39.348V41.0624C26 43.9964 23.6215 46.3749 20.6875 46.3749C17.7534 46.3749 15.375 43.9964 15.375 41.0624V24.6648C15.3757 24.372 15.487 24.0912 15.6852 23.8831L30.743 8.23485C32.8173 6.07852 36.181 6.07811 38.256 8.23382C38.2563 8.23413 38.2567 8.23454 38.257 8.23485L53.3147 23.8831C53.5128 24.0912 53.6243 24.372 53.625 24.6648V46.3748C53.625 46.3749 53.6249 46.3749 53.6249 46.3749Z" fill="black"/>
<path d="M6.104 79.664C5.50667 79.888 4.872 80 4.2 80C3.528 80 2.94 79.7853 2.436 79.356C1.95067 78.9267 1.708 78.3387 1.708 77.592C1.708 76.8453 1.80133 75.4173 1.988 73.308C2.17467 71.18 2.268 69.4813 2.268 68.212C2.268 64.9453 2.072 62.36 1.68 60.456C2.27733 60.232 2.912 60.12 3.584 60.12C4.256 60.12 4.83467 60.3347 5.32 60.764C5.824 61.1933 6.076 61.7813 6.076 62.528C6.076 63.2747 5.98267 64.712 5.796 66.84C5.60933 68.9493 5.516 70.6387 5.516 71.908C5.516 75.1747 5.712 77.76 6.104 79.664ZM22.297 68.688L22.017 74.848C22.017 76.5467 22.2783 78.208 22.801 79.832C22.2783 80.056 21.681 80.168 21.009 80.168C19.4223 80.168 18.629 79.2813 18.629 77.508C18.629 76.7053 18.7316 75.3613 18.937 73.476C19.1423 71.572 19.245 70.3773 19.245 69.892C19.245 68.9587 18.825 68.492 17.985 68.492C17.369 68.492 16.669 68.94 15.885 69.836C15.1196 70.7133 14.457 71.7027 13.897 72.804C13.3556 73.8867 13.0383 74.7827 12.945 75.492C13.0196 76.948 13.2063 78.3387 13.505 79.664C12.9076 79.888 12.2823 80 11.629 80C10.9943 80 10.4716 79.8507 10.061 79.552C9.66897 79.2347 9.47297 78.8053 9.47297 78.264C9.47297 77.704 9.55697 76.7147 9.72497 75.296C9.89297 73.8587 9.97697 72.44 9.97697 71.04C9.97697 69.6213 9.7623 67.9973 9.33297 66.168C9.9303 65.944 10.565 65.832 11.237 65.832C11.909 65.832 12.4503 66.028 12.861 66.42C13.2903 66.812 13.505 67.2973 13.505 67.876C13.505 68.4547 13.4303 69.3787 13.281 70.648C13.9903 69.3227 14.9143 68.1653 16.053 67.176C17.1916 66.168 18.3303 65.664 19.469 65.664C21.3543 65.664 22.297 66.672 22.297 68.688ZM25.7672 62.92C27.4472 61.9867 28.7446 60.68 29.6592 59C30.4059 59 31.0312 59.14 31.5352 59.42C32.0579 59.6813 32.3192 60.0733 32.3192 60.596C32.3192 61.3427 31.6192 62.0987 30.2192 62.864C28.8379 63.6107 27.7366 63.984 26.9152 63.984C26.2992 63.984 25.9166 63.6293 25.7672 62.92ZM26.1592 66.084C26.7566 65.916 27.3539 65.832 27.9512 65.832C28.5672 65.832 29.0806 66.0187 29.4912 66.392C29.9206 66.7467 30.1352 67.2133 30.1352 67.792C30.1352 68.352 30.0139 69.3507 29.7712 70.788C29.5286 72.2253 29.4072 73.6907 29.4072 75.184C29.4072 76.6773 29.5752 78.2267 29.9112 79.832C29.3139 80.056 28.6792 80.168 28.0072 80.168C26.5886 80.168 25.8792 79.5613 25.8792 78.348C25.8792 77.8813 26.0099 76.9107 26.2712 75.436C26.5326 73.9427 26.6632 72.7387 26.6632 71.824C26.6632 69.3413 26.4952 67.428 26.1592 66.084ZM38.6647 80.336C36.6674 80.336 35.1367 79.804 34.0727 78.74C33.0087 77.676 32.4767 76.1453 32.4767 74.148C32.4767 71.7213 33.1581 69.6773 34.5207 68.016C35.8834 66.336 37.6941 65.496 39.9527 65.496C41.2407 65.496 42.2861 65.7573 43.0887 66.28C43.8914 66.784 44.2927 67.54 44.2927 68.548C44.2927 69.2013 44.0314 69.7893 43.5087 70.312C42.9861 70.816 42.3981 71.068 41.7447 71.068C41.5954 71.068 41.4087 71.0493 41.1847 71.012C41.2407 70.7693 41.2687 70.5547 41.2687 70.368C41.2687 69.696 41.0914 69.1267 40.7367 68.66C40.3821 68.1933 39.7941 67.96 38.9727 67.96C38.1514 67.96 37.3861 68.296 36.6767 68.968C36.1727 70.2747 35.9207 71.908 35.9207 73.868C35.9207 76.5373 36.9287 77.872 38.9447 77.872C40.0274 77.872 40.8301 77.5267 41.3527 76.836C41.8941 76.1267 42.1647 75.3333 42.1647 74.456C42.7994 74.456 43.3501 74.6147 43.8167 74.932C44.2834 75.2493 44.5167 75.688 44.5167 76.248C44.5167 77.4613 43.8914 78.4507 42.6407 79.216C41.4087 79.9627 40.0834 80.336 38.6647 80.336ZM47.0953 66.084C47.6927 65.916 48.29 65.832 48.8873 65.832C49.5033 65.832 50.026 66.0187 50.4553 66.392C50.8847 66.7653 51.0993 67.2507 51.0993 67.848C51.0993 68.4267 50.9967 69.444 50.7913 70.9C50.6047 72.3373 50.5113 73.4573 50.5113 74.26C50.5113 76.3507 50.7073 78.152 51.0993 79.664C50.5207 79.888 49.8953 80 49.2233 80C48.5513 80 48.0193 79.8507 47.6273 79.552C47.2353 79.2347 47.0393 78.7867 47.0393 78.208C47.0393 77.6107 47.1513 76.64 47.3753 75.296C47.5993 73.952 47.7113 72.8413 47.7113 71.964C47.7113 69.6307 47.506 67.6707 47.0953 66.084ZM47.4593 59.756C48.1127 59.4573 48.7567 59.308 49.3913 59.308C50.026 59.308 50.4927 59.476 50.7913 59.812C51.1087 60.1293 51.2673 60.6053 51.2673 61.24C51.2673 61.8747 51.0527 62.4347 50.6233 62.92C50.2127 63.4053 49.6713 63.648 48.9993 63.648C47.618 63.648 46.9273 62.9293 46.9273 61.492C46.9273 60.8573 47.1047 60.2787 47.4593 59.756ZM59.2161 80.336C57.1627 80.336 55.6507 79.7387 54.6801 78.544C53.7094 77.3307 53.2241 75.6507 53.2241 73.504C53.2241 71.3387 53.8681 69.4627 55.1561 67.876C56.4441 66.2893 58.0961 65.496 60.1121 65.496C64.2561 65.496 66.3281 67.8293 66.3281 72.496C66.3281 74.68 65.6561 76.5373 64.3121 78.068C62.9681 79.58 61.2694 80.336 59.2161 80.336ZM57.2001 68.576C56.8641 69.6587 56.6961 70.7413 56.6961 71.824C56.6961 72.9067 56.7334 73.7467 56.8081 74.344C56.8827 74.9413 57.0227 75.5387 57.2281 76.136C57.6574 77.3493 58.4974 77.956 59.7481 77.956C61.0174 77.956 61.8481 77.62 62.2401 76.948C62.6507 76.276 62.8561 75.24 62.8561 73.84C62.8561 69.864 61.9134 67.876 60.0281 67.876C58.9454 67.876 58.0027 68.1093 57.2001 68.576Z" fill="black"/>
</svg>
