<svg width="133" height="54" viewBox="0 0 133 54" fill="none" xmlns="http://www.w3.org/2000/svg">
<path d="M53.1667 34.164V18C53.1629 15.0174 51.8886 12.158 49.6234 10.049C47.3581 7.93998 44.2869 6.75357 41.0834 6.75H16.9167C13.7132 6.75357 10.642 7.93998 8.37674 10.049C6.1115 12.158 4.83721 15.0174 4.83337 18V34.164C3.22223 34.6923 1.86391 35.7345 0.998995 37.1059C0.134084 38.4774 -0.181601 40.0895 0.107853 41.6569C0.397307 43.2243 1.27322 44.6457 2.58045 45.6694C3.88769 46.6931 5.54188 47.253 7.25004 47.25H50.75C52.4582 47.253 54.1124 46.6931 55.4196 45.6694C56.7269 44.6457 57.6028 43.2243 57.8922 41.6569C58.1817 40.0895 57.866 38.4774 57.0011 37.1059C56.1362 35.7345 54.7779 34.6923 53.1667 34.164ZM16.9167 11.25H41.0834C43.0062 11.25 44.8503 11.9612 46.2099 13.227C47.5695 14.4929 48.3334 16.2098 48.3334 18V33.75H38.3018C37.5989 33.7496 36.9044 33.8919 36.2666 34.167C35.6288 34.4421 35.0632 34.8435 34.6091 35.343L34.0122 36H23.9855L23.391 35.343C22.9369 34.8435 22.3713 34.4421 21.7335 34.167C21.0957 33.8919 20.4012 33.7496 19.6983 33.75H9.66671V18C9.66671 16.2098 10.4305 14.4929 11.7902 13.227C13.1498 11.9612 14.9939 11.25 16.9167 11.25ZM50.75 42.75H7.25004C6.6091 42.75 5.99441 42.5129 5.5412 42.091C5.08799 41.669 4.83337 41.0967 4.83337 40.5C4.83337 39.9033 5.08799 39.331 5.5412 38.909C5.99441 38.487 6.6091 38.25 7.25004 38.25H19.7007L20.2952 38.907C20.749 39.4062 21.3143 39.8074 21.9516 40.0825C22.5889 40.3576 23.283 40.5001 23.9855 40.5H34.0122C34.7151 40.5004 35.4096 40.3581 36.0474 40.083C36.6852 39.8079 37.2508 39.4065 37.7049 38.907L38.3018 38.25H50.75C51.391 38.25 52.0057 38.487 52.4589 38.909C52.9121 39.331 53.1667 39.9033 53.1667 40.5C53.1667 41.0967 52.9121 41.669 52.4589 42.091C52.0057 42.5129 51.391 42.75 50.75 42.75Z" fill="white"/>
<path d="M86.708 17.016C88.7987 16.3067 90.964 15.952 93.204 15.952C95.444 15.952 97.3013 16.428 98.776 17.38C100.251 18.332 100.988 19.788 100.988 21.748C100.988 23.708 100.297 25.36 98.916 26.704C97.5347 28.0293 95.8733 28.692 93.932 28.692C92.5133 28.692 91.804 28.1507 91.804 27.068C91.804 26.732 91.8693 26.3773 92 26.004C92.504 26.1347 92.9613 26.2 93.372 26.2C94.66 26.2 95.6307 25.8453 96.284 25.136C96.956 24.4267 97.292 23.4467 97.292 22.196C97.292 20.9267 96.9373 19.984 96.228 19.368C95.5187 18.752 94.5293 18.444 93.26 18.444C92.6067 18.444 91.8133 18.556 90.88 18.78C90.7307 21.076 90.656 23.1107 90.656 24.884C90.656 29.8493 90.852 33.4427 91.244 35.664C90.6467 35.888 90.012 36 89.34 36C88.668 36 88.08 35.7853 87.576 35.356C87.0907 34.9267 86.848 34.3573 86.848 33.648C86.848 32.9387 86.9413 31.7067 87.128 29.952C87.3147 28.1787 87.408 26.76 87.408 25.696C87.408 22.448 87.1747 19.5547 86.708 17.016ZM103.251 17.016C105.342 16.3067 107.507 15.952 109.747 15.952C111.987 15.952 113.844 16.428 115.319 17.38C116.794 18.332 117.531 19.788 117.531 21.748C117.531 23.708 116.84 25.36 115.459 26.704C114.078 28.0293 112.416 28.692 110.475 28.692C109.056 28.692 108.347 28.1507 108.347 27.068C108.347 26.732 108.412 26.3773 108.543 26.004C109.047 26.1347 109.504 26.2 109.915 26.2C111.203 26.2 112.174 25.8453 112.827 25.136C113.499 24.4267 113.835 23.4467 113.835 22.196C113.835 20.9267 113.48 19.984 112.771 19.368C112.062 18.752 111.072 18.444 109.803 18.444C109.15 18.444 108.356 18.556 107.423 18.78C107.274 21.076 107.199 23.1107 107.199 24.884C107.199 29.8493 107.395 33.4427 107.787 35.664C107.19 35.888 106.555 36 105.883 36C105.211 36 104.623 35.7853 104.119 35.356C103.634 34.9267 103.391 34.3573 103.391 33.648C103.391 32.9387 103.484 31.7067 103.671 29.952C103.858 28.1787 103.951 26.76 103.951 25.696C103.951 22.448 103.718 19.5547 103.251 17.016ZM124.19 35.664C123.593 35.888 122.958 36 122.286 36C121.614 36 121.026 35.7853 120.522 35.356C120.037 34.9267 119.794 34.3387 119.794 33.592C119.794 32.8453 119.887 31.4173 120.074 29.308C120.261 27.18 120.354 25.4813 120.354 24.212C120.354 20.9453 120.158 18.36 119.766 16.456C120.363 16.232 120.998 16.12 121.67 16.12C122.342 16.12 122.921 16.3347 123.406 16.764C123.91 17.1933 124.162 17.7813 124.162 18.528C124.162 19.2747 124.069 20.712 123.882 22.84C123.695 24.9493 123.602 26.6387 123.602 27.908C123.602 31.1747 123.798 33.76 124.19 35.664Z" fill="white"/>
</svg>
