<svg width="116" height="82" viewBox="0 0 116 82" fill="none" xmlns="http://www.w3.org/2000/svg">
<path d="M1.708 57.016C3.79867 56.3067 5.964 55.952 8.204 55.952C10.444 55.952 12.3013 56.428 13.776 57.38C15.2507 58.332 15.988 59.788 15.988 61.748C15.988 63.708 15.2973 65.36 13.916 66.704C12.5347 68.0293 10.8733 68.692 8.932 68.692C7.51333 68.692 6.804 68.1507 6.804 67.068C6.804 66.732 6.86933 66.3773 7 66.004C7.504 66.1347 7.96133 66.2 8.372 66.2C9.66 66.2 10.6307 65.8453 11.284 65.136C11.956 64.4267 12.292 63.4467 12.292 62.196C12.292 60.9267 11.9373 59.984 11.228 59.368C10.5187 58.752 9.52933 58.444 8.26 58.444C7.60667 58.444 6.81333 58.556 5.88 58.78C5.73067 61.076 5.656 63.1107 5.656 64.884C5.656 69.8493 5.852 73.4427 6.244 75.664C5.64667 75.888 5.012 76 4.34 76C3.668 76 3.08 75.7853 2.576 75.356C2.09067 74.9267 1.848 74.3573 1.848 73.648C1.848 72.9387 1.94133 71.7067 2.128 69.952C2.31467 68.1787 2.408 66.76 2.408 65.696C2.408 62.448 2.17467 59.5547 1.708 57.016ZM22.115 75.664C21.5363 75.888 20.9203 76 20.267 76C19.6136 76 19.0816 75.8507 18.671 75.552C18.279 75.2347 18.083 74.8053 18.083 74.264C18.083 73.704 18.167 72.696 18.335 71.24C18.503 69.784 18.587 68.3747 18.587 67.012C18.587 65.6307 18.3723 64.016 17.943 62.168C18.5403 61.944 19.1283 61.832 19.707 61.832C20.2856 61.832 20.7803 62.028 21.191 62.42C21.6203 62.812 21.835 63.3347 21.835 63.988C21.835 64.324 21.779 64.828 21.667 65.5C21.555 66.1533 21.4896 66.648 21.471 66.984C22.199 65.3227 23.0576 64.0253 24.047 63.092C25.055 62.14 26.0536 61.664 27.043 61.664C27.7336 61.664 28.2843 61.9067 28.695 62.392C29.1056 62.8773 29.311 63.4933 29.311 64.24C29.311 64.968 29.1243 65.5653 28.751 66.032C28.3776 66.48 27.911 66.704 27.351 66.704C26.8096 66.704 26.371 66.648 26.035 66.536C26.091 66.312 26.119 66.1067 26.119 65.92C26.119 65.1547 25.8483 64.772 25.307 64.772C24.4856 64.772 23.711 65.6027 22.983 67.264C22.2736 68.9067 21.7976 70.4467 21.555 71.884C21.6483 73.284 21.835 74.544 22.115 75.664ZM35.8918 76.336C33.8385 76.336 32.3265 75.7387 31.3558 74.544C30.3852 73.3307 29.8998 71.6507 29.8998 69.504C29.8998 67.3387 30.5438 65.4627 31.8318 63.876C33.1198 62.2893 34.7718 61.496 36.7878 61.496C40.9318 61.496 43.0038 63.8293 43.0038 68.496C43.0038 70.68 42.3318 72.5373 40.9878 74.068C39.6438 75.58 37.9452 76.336 35.8918 76.336ZM33.8758 64.576C33.5398 65.6587 33.3718 66.7413 33.3718 67.824C33.3718 68.9067 33.4092 69.7467 33.4838 70.344C33.5585 70.9413 33.6985 71.5387 33.9038 72.136C34.3332 73.3493 35.1732 73.956 36.4238 73.956C37.6932 73.956 38.5238 73.62 38.9158 72.948C39.3265 72.276 39.5318 71.24 39.5318 69.84C39.5318 65.864 38.5892 63.876 36.7038 63.876C35.6212 63.876 34.6785 64.1093 33.8758 64.576ZM54.082 55.336C54.6793 55.112 55.2953 55 55.93 55C56.5647 55 57.0873 55.2147 57.498 55.644C57.9087 56.0547 58.114 56.5773 58.114 57.212C58.114 57.828 58.0207 59.3027 57.834 61.636C57.6473 63.9507 57.554 66.2373 57.554 68.496C57.554 70.736 57.778 73.1253 58.226 75.664C57.554 75.888 56.854 76 56.126 76C54.894 76 54.278 75.132 54.278 73.396C54.278 72.8173 54.3993 71.7813 54.642 70.288C53.858 71.9493 53.158 73.1813 52.542 73.984C51.9447 74.7867 51.3567 75.356 50.778 75.692C50.218 76.0093 49.6207 76.168 48.986 76.168C47.5673 76.168 46.4753 75.6453 45.71 74.6C44.9633 73.5547 44.59 72.2667 44.59 70.736C44.59 69.2053 44.8607 67.768 45.402 66.424C45.962 65.0613 46.7927 63.932 47.894 63.036C49.014 62.1213 50.1993 61.664 51.45 61.664C52.7007 61.664 53.7833 61.832 54.698 62.168C54.6607 59.76 54.4553 57.4827 54.082 55.336ZM54.698 64.548C53.7833 64.212 52.794 64.044 51.73 64.044C50.666 64.044 49.7513 64.352 48.986 64.968C48.3513 66.48 48.034 68.1693 48.034 70.036C48.034 70.8947 48.1553 71.716 48.398 72.5C48.6407 73.284 49.042 73.676 49.602 73.676C50.4607 73.676 51.4313 72.7147 52.514 70.792C53.6153 68.8693 54.3433 66.788 54.698 64.548ZM61.1273 73.144L61.4073 67.32C61.4073 65.5093 61.1459 63.792 60.6233 62.168C61.1459 61.944 61.7899 61.832 62.5553 61.832C64.0486 61.832 64.7953 62.6627 64.7953 64.324C64.7953 65.2573 64.6926 66.5733 64.4873 68.272C64.2819 69.952 64.1793 71.1747 64.1793 71.94C64.1793 72.8733 64.5993 73.34 65.4393 73.34C65.9433 73.34 66.5313 72.92 67.2033 72.08C67.8939 71.2213 68.4819 70.2693 68.9673 69.224C69.4713 68.16 69.7699 67.292 69.8633 66.62C69.7513 64.5667 69.5926 63.0827 69.3873 62.168C69.9846 61.944 70.5913 61.832 71.2073 61.832C71.8419 61.832 72.3646 62.028 72.7753 62.42C73.2046 62.812 73.4193 63.2973 73.4193 63.876C73.4193 64.4547 73.3353 65.416 73.1673 66.76C72.9993 68.104 72.9153 69.5133 72.9153 70.988C72.9153 72.444 73.0833 74.0027 73.4193 75.664C72.6913 75.888 72.0379 76 71.4593 76C70.3019 76 69.7233 75.2347 69.7233 73.704C69.7233 73.032 69.7979 72.0987 69.9473 70.904C69.2006 72.4907 68.2859 73.7693 67.2033 74.74C66.1393 75.692 65.0566 76.168 63.9553 76.168C62.0699 76.168 61.1273 75.16 61.1273 73.144ZM77.3605 57.716C77.9578 57.4173 78.5645 57.268 79.1805 57.268C79.7965 57.268 80.2912 57.464 80.6645 57.856C81.0565 58.248 81.2525 58.8267 81.2525 59.592C81.2525 60.3573 81.2058 61.2253 81.1125 62.196C82.5125 62.196 83.8472 62 85.1165 61.608C85.3405 61.9813 85.4525 62.42 85.4525 62.924C85.4525 63.4093 85.2285 63.8107 84.7805 64.128C84.3512 64.4267 83.9125 64.576 83.4645 64.576C83.0165 64.576 82.5125 64.52 81.9525 64.408C81.3925 64.296 81.0285 64.2307 80.8605 64.212C80.8418 64.38 80.7858 64.716 80.6925 65.22C80.6178 65.724 80.5525 66.1627 80.4965 66.536C80.3472 67.5627 80.2725 68.664 80.2725 69.84C80.2725 72.3973 81.1032 73.676 82.7645 73.676C83.3805 73.676 84.0898 73.4613 84.8925 73.032C85.1352 73.3867 85.2565 73.844 85.2565 74.404C85.2565 74.964 84.9485 75.4027 84.3325 75.72C83.7352 76.0187 83.0165 76.168 82.1765 76.168C78.8912 76.168 77.2485 74.3013 77.2485 70.568C77.2485 70.0267 77.3232 69.0467 77.4725 67.628C77.6405 66.2093 77.7245 65.0613 77.7245 64.184C76.8285 64.24 76.1098 64.3987 75.5685 64.66C75.3445 64.324 75.2325 63.9413 75.2325 63.512C75.2325 63.064 75.3912 62.7 75.7085 62.42C76.0258 62.1213 76.4178 61.972 76.8845 61.972C77.3512 61.972 77.6592 61.9813 77.8085 62C77.8272 61.8507 77.8365 61.6547 77.8365 61.412C77.8365 60.012 77.6778 58.78 77.3605 57.716ZM92.4114 76.336C90.358 76.336 88.846 75.7387 87.8754 74.544C86.9047 73.3307 86.4194 71.6507 86.4194 69.504C86.4194 67.3387 87.0634 65.4627 88.3514 63.876C89.6394 62.2893 91.2914 61.496 93.3074 61.496C97.4514 61.496 99.5234 63.8293 99.5234 68.496C99.5234 70.68 98.8514 72.5373 97.5074 74.068C96.1634 75.58 94.4647 76.336 92.4114 76.336ZM90.3954 64.576C90.0594 65.6587 89.8914 66.7413 89.8914 67.824C89.8914 68.9067 89.9287 69.7467 90.0034 70.344C90.078 70.9413 90.218 71.5387 90.4234 72.136C90.8527 73.3493 91.6927 73.956 92.9434 73.956C94.2127 73.956 95.0434 73.62 95.4354 72.948C95.846 72.276 96.0514 71.24 96.0514 69.84C96.0514 65.864 95.1087 63.876 93.2234 63.876C92.1407 63.876 91.198 64.1093 90.3954 64.576ZM104.218 70.904C104.162 71.1653 104.134 71.38 104.134 71.548C104.134 72.3133 104.358 72.9013 104.806 73.312C105.272 73.7227 105.888 73.928 106.654 73.928C107.438 73.928 108.082 73.788 108.586 73.508C109.108 73.2093 109.37 72.7707 109.37 72.192C109.37 71.6133 109.09 71.156 108.53 70.82C107.988 70.4653 107.326 70.1853 106.542 69.98C105.776 69.7747 105.002 69.5507 104.218 69.308C103.434 69.0467 102.762 68.6453 102.202 68.104C101.66 67.5627 101.39 66.8813 101.39 66.06C101.39 64.772 102.071 63.6893 103.434 62.812C104.796 61.9347 106.224 61.496 107.718 61.496C109.36 61.496 110.611 61.832 111.47 62.504C111.974 62.896 112.226 63.4187 112.226 64.072C112.226 64.7067 111.974 65.2293 111.47 65.64C110.984 66.032 110.387 66.228 109.678 66.228C109.528 66.228 109.342 66.2093 109.118 66.172C109.174 65.9293 109.202 65.7147 109.202 65.528C109.202 64.9867 108.996 64.576 108.586 64.296C108.175 64.016 107.615 63.876 106.906 63.876C106.215 63.876 105.58 64.016 105.002 64.296C104.778 64.5947 104.666 64.9773 104.666 65.444C104.666 65.9107 104.936 66.2933 105.478 66.592C106.019 66.872 106.672 67.124 107.438 67.348C108.222 67.5533 109.006 67.796 109.79 68.076C110.574 68.3373 111.236 68.7573 111.778 69.336C112.319 69.896 112.59 70.6053 112.59 71.464C112.59 72.864 111.89 74.0307 110.49 74.964C109.108 75.8787 107.68 76.336 106.206 76.336C104.731 76.336 103.508 76.0747 102.538 75.552C101.586 75.0107 101.11 74.1987 101.11 73.116C101.11 72.444 101.352 71.9027 101.838 71.492C102.342 71.0627 102.948 70.848 103.658 70.848C103.807 70.848 103.994 70.8667 104.218 70.904Z" fill="black"/>
<path d="M44.25 35.75V40.3333H41.5C41.0138 40.3333 40.5475 40.1402 40.2036 39.7964C39.8598 39.4525 39.6667 38.9862 39.6667 38.5V35.75H44.25ZM47.9167 32.0833H36V38.5C36 39.9587 36.5795 41.3576 37.6109 42.3891C38.6424 43.4205 40.0413 44 41.5 44H47.9167V32.0833Z" fill="black"/>
<path d="M76.3334 35.75V38.5C76.3334 38.9862 76.1402 39.4525 75.7964 39.7964C75.4526 40.1402 74.9862 40.3333 74.5 40.3333H71.75V35.75H76.3334ZM80 32.0833H68.0833V44H74.5C75.9587 44 77.3577 43.4205 78.3891 42.3891C79.4206 41.3576 80 39.9587 80 38.5V32.0833Z" fill="black"/>
<path d="M44.25 19.7084V24.2917H39.6667V19.7084H44.25ZM47.9167 16.0417H36V27.9584H47.9167V16.0417Z" fill="black"/>
<path d="M76.3334 19.7084V24.2917H71.75V19.7084H76.3334ZM80 16.0417H68.0833V27.9584H80V16.0417Z" fill="black"/>
<path d="M44.25 3.66667V8.25H39.6667V5.5C39.6667 5.01377 39.8598 4.54745 40.2036 4.20364C40.5475 3.85982 41.0138 3.66667 41.5 3.66667H44.25ZM47.9167 0H41.5C40.0413 0 38.6424 0.579463 37.6109 1.61091C36.5795 2.64236 36 4.04131 36 5.5V11.9167H47.9167V0Z" fill="black"/>
<path d="M60.2917 35.75V40.3333H55.7083V35.75H60.2917ZM63.9583 32.0833H52.0417V44H63.9583V32.0833Z" fill="black"/>
<path d="M60.2917 19.7084V24.2917H55.7083V19.7084H60.2917ZM63.9583 16.0417H52.0417V27.9584H63.9583V16.0417Z" fill="black"/>
<path d="M60.2917 3.66667V8.25001H55.7083V3.66667H60.2917ZM63.9583 0H52.0417V11.9167H63.9583V0Z" fill="black"/>
<path d="M74.5 3.66667C74.9862 3.66667 75.4526 3.85982 75.7964 4.20364C76.1402 4.54746 76.3334 5.01377 76.3334 5.5V8.25001H71.75V3.66667H74.5ZM74.5 0H68.0833V11.9167H80V5.5C80 4.04131 79.4206 2.64236 78.3891 1.61091C77.3577 0.579463 75.9587 0 74.5 0V0Z" fill="black"/>
</svg>
