<svg width="76" height="91" viewBox="0 0 76 91" fill="none" xmlns="http://www.w3.org/2000/svg">
<path d="M10.528 71.9862C10.6027 71.6128 10.64 71.2302 10.64 70.8382C10.64 69.0275 9.75333 68.1222 7.98 68.1222C7.17733 68.1222 6.496 68.2902 5.936 68.6262C5.41333 69.2422 5.152 69.9795 5.152 70.8382C5.152 71.3982 5.39467 71.8835 5.88 72.2942C6.36533 72.6862 6.96267 72.9942 7.672 73.2182C8.4 73.4422 9.184 73.7222 10.024 74.0582C10.864 74.3942 11.6387 74.7582 12.348 75.1502C13.076 75.5235 13.6827 76.0928 14.168 76.8582C14.6533 77.6048 14.896 78.4915 14.896 79.5182C14.896 81.4782 14.14 83.0742 12.628 84.3062C11.1347 85.5382 9.33333 86.1542 7.224 86.1542C5.52533 86.1542 4.07867 85.7342 2.884 84.8942C1.708 84.0355 1.12 82.8408 1.12 81.3102C1.12 80.5262 1.35333 79.8728 1.82 79.3502C2.30533 78.8088 2.87467 78.5382 3.528 78.5382C4.2 78.5382 4.69467 78.6222 5.012 78.7902C4.86267 79.3502 4.788 79.8542 4.788 80.3022C4.788 81.3102 5.068 82.1128 5.628 82.7102C6.20667 83.2888 7 83.5782 8.008 83.5782C9.016 83.5782 9.828 83.3168 10.444 82.7942C11.06 82.2715 11.368 81.5808 11.368 80.7222C11.368 79.8448 11.0227 79.1262 10.332 78.5662C9.66 78.0062 8.83867 77.5582 7.868 77.2222C6.89733 76.8862 5.92667 76.5315 4.956 76.1582C3.98533 75.7848 3.15467 75.2342 2.464 74.5062C1.792 73.7595 1.456 72.8262 1.456 71.7062C1.456 69.9515 2.212 68.4955 3.724 67.3382C5.25467 66.1808 6.98133 65.6022 8.904 65.6022C10.3227 65.6022 11.5453 65.8915 12.572 66.4702C13.6173 67.0302 14.14 67.8888 14.14 69.0462C14.14 69.8862 13.8693 70.6048 13.328 71.2022C12.7867 71.7808 12.1053 72.0702 11.284 72.0702C11.06 72.0702 10.808 72.0422 10.528 71.9862ZM22.2747 86.1542C20.2213 86.1542 18.7093 85.5568 17.7387 84.3622C16.768 83.1488 16.2827 81.4688 16.2827 79.3222C16.2827 77.1568 16.9267 75.2808 18.2147 73.6942C19.5027 72.1075 21.1547 71.3142 23.1707 71.3142C27.3147 71.3142 29.3867 73.6475 29.3867 78.3142C29.3867 80.4982 28.7147 82.3555 27.3707 83.8862C26.0267 85.3982 24.328 86.1542 22.2747 86.1542ZM20.2587 74.3942C19.9227 75.4768 19.7547 76.5595 19.7547 77.6422C19.7547 78.7248 19.792 79.5648 19.8667 80.1622C19.9413 80.7595 20.0813 81.3568 20.2867 81.9542C20.716 83.1675 21.556 83.7742 22.8067 83.7742C24.076 83.7742 24.9067 83.4382 25.2987 82.7662C25.7093 82.0942 25.9147 81.0582 25.9147 79.6582C25.9147 75.6822 24.972 73.6942 23.0867 73.6942C22.004 73.6942 21.0613 73.9275 20.2587 74.3942ZM31.5888 84.8382C32.0181 81.1235 32.2328 78.5662 32.2328 77.1662C32.2328 73.2462 32.0741 69.2422 31.7568 65.1542C32.3168 64.9302 32.9141 64.8182 33.5488 64.8182C34.1835 64.8182 34.7248 65.0328 35.1728 65.4622C35.6208 65.8915 35.8448 66.4328 35.8448 67.0862C35.8448 68.2062 35.7328 69.9982 35.5088 72.4622C35.2848 74.9075 35.1448 76.5408 35.0888 77.3622C36.6195 74.4875 38.1408 72.6955 39.6528 71.9862C40.3248 71.6502 41.0435 71.4822 41.8088 71.4822C42.8541 71.4822 43.6568 72.0328 44.2168 73.1342C44.7955 74.2355 45.0848 75.5795 45.0848 77.1662C45.0848 79.7048 44.3941 81.8142 43.0128 83.4942C41.6315 85.1555 39.8395 85.9862 37.6368 85.9862C35.4528 85.9862 33.4368 85.6035 31.5888 84.8382ZM34.9488 83.0742C35.6955 83.3542 36.5821 83.4942 37.6088 83.4942C38.6355 83.4942 39.5221 83.2982 40.2688 82.9062C41.1835 81.3382 41.6408 79.6302 41.6408 77.7822C41.6408 76.9048 41.5381 76.0555 41.3328 75.2342C41.1275 74.3942 40.8008 73.9742 40.3528 73.9742C39.6621 73.9742 38.7568 74.9262 37.6368 76.8302C36.5168 78.7342 35.6208 80.8155 34.9488 83.0742ZM51.5095 85.4822C50.9308 85.7062 50.3148 85.8182 49.6615 85.8182C49.0082 85.8182 48.4762 85.6688 48.0655 85.3702C47.6735 85.0528 47.4775 84.6235 47.4775 84.0822C47.4775 83.5222 47.5615 82.5142 47.7295 81.0582C47.8975 79.6022 47.9815 78.1928 47.9815 76.8302C47.9815 75.4488 47.7668 73.8342 47.3375 71.9862C47.9348 71.7622 48.5228 71.6502 49.1015 71.6502C49.6802 71.6502 50.1748 71.8462 50.5855 72.2382C51.0148 72.6302 51.2295 73.1528 51.2295 73.8062C51.2295 74.1422 51.1735 74.6462 51.0615 75.3182C50.9495 75.9715 50.8842 76.4662 50.8655 76.8022C51.5935 75.1408 52.4522 73.8435 53.4415 72.9102C54.4495 71.9582 55.4482 71.4822 56.4375 71.4822C57.1282 71.4822 57.6788 71.7248 58.0895 72.2102C58.5002 72.6955 58.7055 73.3115 58.7055 74.0582C58.7055 74.7862 58.5188 75.3835 58.1455 75.8502C57.7722 76.2982 57.3055 76.5222 56.7455 76.5222C56.2042 76.5222 55.7655 76.4662 55.4295 76.3542C55.4855 76.1302 55.5135 75.9248 55.5135 75.7382C55.5135 74.9728 55.2428 74.5902 54.7015 74.5902C53.8802 74.5902 53.1055 75.4208 52.3775 77.0822C51.6682 78.7248 51.1922 80.2648 50.9495 81.7022C51.0428 83.1022 51.2295 84.3622 51.5095 85.4822ZM62.7104 79.4622C62.7104 80.8062 62.925 81.8702 63.3544 82.6542C63.7837 83.4195 64.5024 83.8022 65.5104 83.8022C66.5184 83.8022 67.3024 83.4662 67.8624 82.7942C68.441 82.1035 68.7304 81.2728 68.7304 80.3022C69.365 80.3022 69.9157 80.4608 70.3824 80.7782C70.849 81.0955 71.0824 81.5342 71.0824 82.0942C71.0824 83.2515 70.4664 84.2222 69.2344 85.0062C68.0024 85.7715 66.705 86.1542 65.3424 86.1542C63.2144 86.1542 61.6744 85.5848 60.7224 84.4462C59.7704 83.2888 59.2944 81.5808 59.2944 79.3222C59.2944 77.0635 59.929 75.1688 61.1984 73.6382C62.4864 72.0888 64.1944 71.3142 66.3224 71.3142C67.7784 71.3142 68.945 71.6502 69.8224 72.3222C70.7184 72.9755 71.1664 74.0022 71.1664 75.4022C71.1664 76.7835 70.5317 77.8288 69.2624 78.5382C68.0117 79.2288 66.481 79.5742 64.6704 79.5742C64.0357 79.5742 63.3824 79.5368 62.7104 79.4622ZM62.7384 77.2502C63.2984 77.3622 63.8864 77.4182 64.5024 77.4182C65.8464 77.4182 66.9757 77.1662 67.8904 76.6622C68.0024 76.2142 68.0584 75.8595 68.0584 75.5982C68.0584 74.9448 67.825 74.4502 67.3584 74.1142C66.8917 73.7782 66.2477 73.6102 65.4264 73.6102C64.6237 73.6102 63.8957 73.8715 63.2424 74.3942C62.9064 75.3648 62.7384 76.3168 62.7384 77.2502Z" fill="black"/>
<g clip-path="url(#clip0_2_29)">
<path d="M39 58.8182C32.671 58.8182 26.4841 57.1107 21.2217 53.9116C15.9594 50.7126 11.8578 46.1657 9.43584 40.8458C7.01383 35.526 6.38013 29.6722 7.61485 24.0247C8.84958 18.3773 11.8973 13.1897 16.3726 9.11808C20.8478 5.04647 26.5497 2.27366 32.7571 1.1503C38.9645 0.0269487 45.3986 0.603496 51.2459 2.80704C57.0931 5.01058 62.0908 8.74215 65.607 13.5299C69.1232 18.3176 71 23.9464 71 29.7045C70.9908 37.4234 67.6164 44.8237 61.6173 50.2818C55.6181 55.7398 47.4841 58.8098 39 58.8182ZM39 7.8693C34.2532 7.8693 29.6131 9.14992 25.6663 11.5492C21.7195 13.9485 18.6434 17.3587 16.8269 21.3486C15.0104 25.3384 14.5351 29.7288 15.4611 33.9644C16.3872 38.2 18.673 42.0907 22.0294 45.1444C25.3859 48.1981 29.6623 50.2777 34.3178 51.1202C38.9734 51.9627 43.799 51.5303 48.1844 49.8777C52.5698 48.225 56.3181 45.4263 58.9553 41.8355C61.5924 38.2448 63 34.0231 63 29.7045C62.9922 23.9156 60.4612 18.3659 55.962 14.2725C51.4628 10.1791 45.3628 7.87637 39 7.8693Z" fill="black"/>
<path d="M45.5466 45.916H37.5466V31.0268H33.9093V23.7484H39C40.7358 23.7496 42.4002 24.3776 43.6276 25.4943C44.855 26.611 45.5452 28.1252 45.5466 29.7045V45.916Z" fill="black"/>
<path d="M39.7573 21.1306C42.2846 21.1306 44.3333 19.2666 44.3333 16.9673C44.3333 14.668 42.2846 12.8041 39.7573 12.8041C37.2301 12.8041 35.1813 14.668 35.1813 16.9673C35.1813 19.2666 37.2301 21.1306 39.7573 21.1306Z" fill="black"/>
</g>
<defs>
<clipPath id="clip0_2_29">
<rect x="7" y="0.590881" width="64" height="58.2273" rx="7" fill="white"/>
</clipPath>
</defs>
</svg>
